<svg width="219" height="246" viewBox="0 0 219 246" fill="none" xmlns="http://www.w3.org/2000/svg">
<g filter="url(#filter0_ii_561_63)">
<path fill-rule="evenodd" clip-rule="evenodd" d="M131.625 11.475L128.025 9.675L124.875 8.325V8.325C123.979 8.02627 123.048 7.84516 122.105 7.78623L119.925 7.65L118.02 7.76903C116.896 7.83932 115.787 8.0705 114.729 8.45554V8.45554C114.144 8.66818 113.577 8.9268 113.033 9.22897L111.825 9.9L110.025 11.25L108.27 12.8099C108.091 12.9693 107.891 13.1043 107.677 13.2116L107.453 13.3237C107.221 13.4396 106.965 13.5 106.706 13.5V13.5C106.376 13.5 106.054 13.4024 105.779 13.2195L105.525 13.05V13.05C104.629 12.4527 103.657 11.9775 102.636 11.6369L102.15 11.475L100.8 11.025L99.5784 10.7959C97.9962 10.4993 96.3899 10.35 94.7802 10.35H92.5558C91.9044 10.35 91.2554 10.4299 90.6235 10.5879L90.4652 10.6274C90.0065 10.7421 89.5616 10.9067 89.1386 11.1182V11.1182C88.6647 11.3552 88.2216 11.6494 87.8192 11.9943L87.4884 12.2778C87.0636 12.642 86.6699 13.0411 86.3117 13.4709L85.725 14.175L85.0584 15.1083C84.7537 15.5349 84.4959 15.993 84.2894 16.4748V16.4748C84.0474 17.0393 83.8777 17.6322 83.7844 18.2392L83.6443 19.1496C83.5316 19.8821 83.475 20.6222 83.475 21.3634V22.95V24.975L83.5875 25.8746C83.6623 26.4734 83.7961 27.0633 83.9869 27.6358V27.6358C84.2445 28.4085 84.6077 29.1491 85.0595 29.8268V29.8268C85.4989 30.4858 86.0247 31.0914 86.6167 31.6176L87.75 32.625V32.625C88.7984 33.3738 89.9038 34.0394 91.0562 34.6156L91.125 34.65L92.6614 35.2262C92.8367 35.2919 93.018 35.3405 93.2027 35.3713V35.3713C94.6005 35.6043 95.625 36.8136 95.625 38.2307V40.05C95.625 41.1684 94.7184 42.075 93.6 42.075V42.075H91.8V42.075C91.2081 42.075 90.6244 41.9372 90.095 41.6725L89.55 41.4L88.425 40.725L87.3 40.05L85.5 38.925L83.925 37.8V37.8C83.1773 37.2018 82.4982 36.5227 81.9 35.775V35.775L81.5605 35.3385C80.7389 34.2821 80.0235 33.1471 79.425 31.95V31.95V31.95C78.8258 30.7515 78.3123 29.512 77.8886 28.2408L77.625 27.45L77.175 25.875L76.95 24.3L76.8964 23.9245C76.7825 23.1277 76.5739 22.3473 76.275 21.6V21.6L76.0039 20.7867C75.8863 20.4337 75.688 20.113 75.425 19.85V19.85C75.2429 19.6679 75.0326 19.5163 74.8022 19.4011L74.4438 19.2219C74.3148 19.1574 74.1813 19.1021 74.0444 19.0565L73.8546 18.9932C73.6694 18.9315 73.4755 18.9 73.2803 18.9V18.9C72.8874 18.9 72.5051 19.0274 72.1908 19.2632L72.0805 19.3459C71.8783 19.4975 71.7034 19.6824 71.5632 19.8927L71.2153 20.4146C70.989 20.754 70.7987 21.1159 70.6472 21.4945L70.425 22.05L69.975 23.4L69.75 24.525L69.525 26.325V28.8V30.6L69.75 32.4L70.1608 34.1803C70.3365 34.9417 70.5848 35.6845 70.9021 36.3985L71.0736 36.7843C71.2409 37.1608 71.4399 37.5223 71.6684 37.865V37.865C72.0377 38.4191 72.4814 38.9197 72.9869 39.3531L73.8 40.05L74.874 40.8555C75.357 41.2178 75.8717 41.5358 76.4118 41.8059V41.8059C77.0686 42.1343 77.7594 42.3899 78.4719 42.568L80.1 42.975L83.25 43.65L87.75 44.55L89.325 44.775L91.6719 44.9706C91.8912 44.9888 92.0851 45.1201 92.1834 45.3169V45.3169C92.2272 45.4044 92.25 45.501 92.25 45.5988V45.6134C92.25 45.7969 92.1771 45.9729 92.0473 46.1027L91.125 47.025L90.225 48.15L88.65 49.95L87.525 51.3L86.4 52.425L85.9673 52.8577C85.806 53.019 85.6563 53.1916 85.5194 53.3741L85.2635 53.7154C85.1221 53.9039 85.012 54.114 84.9375 54.3375V54.3375C84.863 54.561 84.825 54.7951 84.825 55.0308V55.3009C84.825 55.4834 84.838 55.6657 84.8638 55.8463L85.05 57.15L85.407 58.7567C85.4688 59.0347 85.5 59.3187 85.5 59.6035V59.9287C85.5 60.3208 85.4087 60.7076 85.2333 61.0584V61.0584C85.1119 61.3012 84.9521 61.5229 84.7601 61.7149L84.15 62.325L83.8648 62.6102C83.6066 62.8684 83.3085 63.0833 82.9819 63.2466V63.2466C82.7118 63.3816 82.425 63.48 82.1289 63.5392L81.9282 63.5794C81.6102 63.643 81.2866 63.675 80.9623 63.675H79.2H78.991C77.9317 63.675 76.8737 63.5998 75.825 63.45V63.45L74.7 63.225L69.975 61.65L66.375 60.075V60.075C63.6826 58.5792 61.1562 56.8023 58.8383 54.7741L58.725 54.675L56.2194 52.0441C54.8926 50.651 53.6974 49.1383 52.6489 47.5253L52.4524 47.223C51.6854 46.0428 51.0128 44.8039 50.4412 43.5177L49.9675 42.452C49.6564 41.752 49.4066 41.0263 49.2208 40.2832L49.0549 39.6196C48.9022 39.0088 48.825 38.3817 48.825 37.7521V36.8474C48.825 35.8565 49.1298 34.8896 49.6981 34.0778V34.0778C50.1587 33.4197 50.7763 32.8869 51.4948 32.5276L53.55 31.5L56.6164 29.4557C57.2705 29.0196 57.88 28.52 58.4359 27.9641V27.9641C58.9277 27.4723 59.3756 26.9385 59.7744 26.3687L60.0303 26.0031C60.5095 25.3186 60.9376 24.5998 61.3112 23.8525L61.3226 23.8298C61.6904 23.0942 62.0055 22.3334 62.2656 21.5532L62.55 20.7V20.7C62.9971 19.3588 63.225 17.9542 63.225 16.5405V11.5099C63.225 10.7401 63.1224 9.97368 62.9198 9.23099V9.23099C62.6749 8.33287 62.2867 7.48012 61.7704 6.70554L61.2 5.85L60.5439 5.10013C59.9346 4.40382 59.2263 3.80082 58.4417 3.31045V3.31045C58.0312 3.05386 57.6015 2.82922 57.1565 2.63851L56.5862 2.39408C56.3624 2.29818 56.1313 2.22034 55.8952 2.16129V2.16129C55.5331 2.07077 55.1613 2.025 54.7881 2.025H53.806C53.199 2.025 52.6055 2.2047 52.1003 2.54144L52.0141 2.59892C51.6921 2.81362 51.4217 3.09717 51.2226 3.42908V3.42908C50.9788 3.83538 50.85 4.30029 50.85 4.77411V4.91619C50.85 5.08843 50.8642 5.26039 50.8926 5.43029L50.9784 5.94568C51.0425 6.32973 51.1635 6.70206 51.3377 7.05031V7.05031C51.6088 7.59265 51.75 8.19068 51.75 8.79704V9V9C51.75 9.49706 51.3471 9.9 50.85 9.9H49.5791C49.3773 9.9 49.1766 9.92811 48.9826 9.98353L48.4636 10.1318C47.9567 10.2766 47.471 10.4874 47.019 10.7586L46.575 11.025V11.025C45.9758 11.4744 45.4092 11.9658 44.8795 12.4955L44.325 13.05L42.525 14.85L40.9673 16.4077C40.806 16.569 40.6334 16.7187 40.4509 16.8556L40.0114 17.1852C39.8879 17.2778 39.7504 17.3499 39.604 17.3987L39.5452 17.4183C39.2887 17.5038 39.0113 17.5038 38.7548 17.4183V17.4183C38.5708 17.3569 38.4036 17.2536 38.2664 17.1164L37.125 15.975L34.2 12.6L32.625 10.8V10.8C31.5763 9.75132 30.4545 8.7784 29.2681 7.88857L29.25 7.875L27.225 6.525L24.975 5.175L21.375 3.375L18.9 2.25L17.1 1.575L14.85 0.675L13.3457 0.223699C12.8512 0.0753611 12.3377 0 11.8215 0H11.1416C10.9159 0 10.6923 0.0430616 10.4828 0.126875V0.126875C9.97327 0.330694 9.58675 0.758882 9.43598 1.28657L9.36136 1.54773C9.27147 1.86237 9.24892 2.19243 9.2952 2.51638L9.36903 3.03323C9.42282 3.40973 9.52138 3.77846 9.66263 4.13157L10.8 6.975L12.15 9.675L12.825 11.475L13.725 13.5V13.5C14.1734 14.8452 14.4595 16.2391 14.5773 17.6522L14.625 18.225V19.8V21.15V22.275V23.5646C14.625 23.7541 14.6483 23.943 14.6942 24.1269V24.1269C14.7962 24.5346 15.007 24.907 15.3041 25.2041L15.4962 25.3962C15.8121 25.7121 16.1889 25.9606 16.6037 26.1265L16.7841 26.1987C16.9944 26.2828 17.1976 26.3835 17.3917 26.5L18.6753 27.2702C19.1243 27.5396 19.5498 27.8463 19.9474 28.1871L20.223 28.4233C20.6888 28.8225 21.0976 29.2839 21.4379 29.7943L21.5891 30.0212C21.746 30.2564 21.8779 30.5073 21.9829 30.7698L22.0608 30.9645C22.2023 31.3183 22.275 31.6957 22.275 32.0767V32.5151C22.275 32.8785 22.1571 33.2322 21.939 33.5229V33.5229C21.7191 33.8162 21.4092 34.0295 21.0567 34.1302L20.488 34.2927C20.1808 34.3805 19.8629 34.425 19.5435 34.425H19.1131C18.5382 34.425 17.9804 34.2293 17.5315 33.8702V33.8702C17.2472 33.6427 16.9171 33.4793 16.5639 33.391L15.7708 33.1927C15.4581 33.1145 15.137 33.075 14.8147 33.075V33.075C14.391 33.075 13.9701 33.1433 13.5681 33.2773L13.5128 33.2957C13.0575 33.4475 12.6308 33.6744 12.2504 33.967L9.9 35.775L6.525 38.475L6.11401 38.8175C5.491 39.3367 4.79911 39.7671 4.05804 40.0964L3.69661 40.2571C3.33336 40.4185 2.98948 40.6204 2.67147 40.8589L2.21714 41.1996C1.6525 41.6231 1.23043 42.2087 1.00723 42.8783V42.8783C0.7906 43.5282 0.771185 44.2277 0.951434 44.8886L1.06776 45.3151C1.25374 45.9971 1.5842 46.631 2.03672 47.1741L2.16189 47.3243C2.37026 47.5743 2.59922 47.8065 2.84634 48.0183L3.1134 48.2472C3.73545 48.7804 4.42055 49.2353 5.15334 49.6017L6.75 50.4L7.49215 50.7373C8.64195 51.26 9.85801 51.6224 11.1063 51.8144V51.8144C11.8011 51.9213 12.503 51.975 13.2059 51.975H15.975L23.4 51.525L27.787 51.3343C28.3057 51.3117 28.8228 51.4062 29.3 51.6107L29.6092 51.7433C29.9635 51.8951 30.2717 52.1373 30.503 52.4457V52.4457C30.7146 52.7278 30.8553 53.0566 30.9132 53.4044L30.993 53.8829C31.0309 54.1106 31.05 54.341 31.05 54.5718V56.025V56.025C31.05 56.7453 30.7639 57.4361 30.2545 57.9455L30.2417 57.9583C30.0319 58.1681 29.7897 58.3426 29.5244 58.4753L28.6732 58.9009C28.3082 59.0834 27.9307 59.2398 27.5435 59.3688L25.425 60.075L24.3692 60.5275C24.0249 60.6751 23.7038 60.8718 23.4161 61.1116L23.1529 61.3309C22.7275 61.6854 22.4186 62.1598 22.2665 62.6922V62.6922C22.125 63.1875 22.125 63.7125 22.2665 64.2078L22.286 64.2759C22.4263 64.7672 22.6896 65.2146 23.0509 65.5759L23.2744 65.7994C23.6547 66.1797 24.1039 66.4838 24.5982 66.6956L25.425 67.05L28.575 67.95L33.075 69.075L36.675 69.75L38.7 69.975H40.5L42.5351 70.1446C42.9725 70.181 43.3957 70.3174 43.7721 70.5433V70.5433C44.1362 70.7617 44.4472 71.0582 44.6826 71.4115L44.8891 71.7211C45.112 72.0556 45.2894 72.4182 45.4165 72.7995L45.4727 72.9681C45.6067 73.3701 45.675 73.791 45.675 74.2147V74.2147C45.675 74.537 45.6355 74.8581 45.5573 75.1708L45.3669 75.9323C45.2734 76.3064 45.1003 76.6559 44.8594 76.9569V76.9569C44.5118 77.3915 44.0375 77.7071 43.5024 77.86L43.2304 77.9377C42.9117 78.0288 42.5818 78.075 42.2503 78.075H41.4971C40.9833 78.075 40.4705 78.0307 39.9643 77.9427L35.55 77.175L27.675 76.275H25.653C25.2039 76.275 24.7578 76.3474 24.3318 76.4894L24.1396 76.5535C23.7992 76.6669 23.4816 76.8397 23.2014 77.0639L23.0427 77.1908C22.6885 77.4742 22.4237 77.854 22.2802 78.2843V78.2843C22.1302 78.7343 22.1197 79.219 22.25 79.675L22.2755 79.7641C22.4218 80.2762 22.7188 80.7323 23.1279 81.0733L23.4016 81.3013C23.6988 81.549 24.032 81.7499 24.3898 81.8973L27.675 83.25L35.55 86.175L40.725 87.975L43.2 89.1L45.675 90.45L46.3957 90.8104C47.7067 91.4658 49.1147 91.9057 50.5656 92.1129V92.1129C51.2044 92.2042 51.8488 92.25 52.4941 92.25H54.0897C56.1185 92.25 58.1359 91.9466 60.075 91.35V91.35L61.5172 90.709C61.9042 90.537 62.3114 90.4148 62.7291 90.3452V90.3452C63.2072 90.2655 63.6943 90.2555 64.1752 90.3157L65.25 90.45L69.3 91.35L73.575 92.25L75.0873 92.525C75.7268 92.6412 76.3502 92.8334 76.9442 93.0974L77.2924 93.2522C77.8112 93.4827 78.2923 93.7901 78.7195 94.164L79.2047 94.5885C79.6436 94.9726 79.9722 95.4667 80.1567 96.02V96.02C80.2682 96.3545 80.325 96.7048 80.325 97.0574V98.5363C80.325 98.8426 80.2665 99.1461 80.1528 99.4306V99.4306C79.9719 99.8829 79.658 100.27 79.2527 100.54L79.1914 100.581C78.7569 100.87 78.2463 101.025 77.7241 101.025H51.1122C49.2905 101.025 47.4719 101.176 45.675 101.475V101.475L42.075 102.6L42.0069 102.623C40.7108 103.055 39.3535 103.275 37.9872 103.275H34.9115C34.1576 103.275 33.424 103.03 32.8208 102.578L32.6992 102.487C32.2114 102.121 31.8467 101.615 31.6538 101.037V101.037C31.552 100.731 31.5 100.411 31.5 100.088V99.2956C31.5 98.651 31.5791 98.0088 31.7354 97.3834L31.7951 97.1447C31.898 96.7328 32.0458 96.3334 32.2357 95.9537L32.5943 95.2364C32.7625 94.9001 32.85 94.5292 32.85 94.1532V94.1532C32.85 93.5109 32.5948 92.8948 32.1406 92.4406L31.9901 92.2901C31.6678 91.9678 31.2749 91.725 30.8425 91.5808L13.275 85.725L12.1403 85.4729C11.5527 85.3423 10.9449 85.3305 10.3526 85.4382L10.1669 85.4719C9.2665 85.6356 8.44989 86.1043 7.8543 86.7991L7.65582 87.0307C7.50298 87.209 7.3805 87.4113 7.29328 87.6293V87.6293C7.08896 88.1401 7.08896 88.7099 7.29328 89.2207L7.31318 89.2705C7.3874 89.456 7.48574 89.631 7.60565 89.7909L8.775 91.35L12.3949 96.0346C12.5302 96.2096 12.6277 96.4108 12.6813 96.6254V96.6254C12.774 96.9962 12.731 97.3879 12.5601 97.7298L12.4632 97.9236C12.4045 98.041 12.3354 98.1528 12.2567 98.2578L11.361 99.452C11.1389 99.7482 10.9729 100.082 10.8712 100.438V100.438C10.6796 101.109 10.725 101.825 10.9997 102.466L11.0128 102.497C11.1695 102.862 11.3945 103.194 11.6757 103.476L13.95 105.75L14.1619 105.962C14.4656 106.266 14.6869 106.642 14.8049 107.055V107.055C14.9786 107.663 14.9181 108.314 14.6353 108.879L14.5577 109.035C14.4533 109.243 14.3158 109.434 14.1506 109.599V109.599C13.8721 109.878 13.5232 110.075 13.141 110.171L12.4064 110.355C12.0863 110.435 11.7589 110.482 11.4293 110.497L7.4221 110.671C6.97543 110.69 6.53231 110.759 6.10097 110.877L5.33492 111.086C4.64499 111.274 4.02949 111.67 3.57168 112.219V112.219C3.29302 112.553 3.07935 112.937 2.94171 113.35L2.7 114.075L2.25 116.1L0.225 128.475L0 130.275V132.75V135.089C0 135.471 0.11315 135.845 0.325191 136.163L0.457214 136.361C0.733842 136.776 1.19955 137.025 1.69824 137.025V137.025C2.05429 137.025 2.39859 136.898 2.66892 136.666L3.825 135.675L9.15562 129.705C9.34852 129.489 9.59456 129.327 9.86932 129.235V129.235C10.0387 129.179 10.2182 129.15 10.3967 129.15V129.15C10.6598 129.15 10.9225 129.211 11.1578 129.329L11.25 129.375V129.375C11.8419 129.671 12.4945 129.825 13.1562 129.825H13.95L15.9473 129.659C16.4115 129.62 16.8641 129.493 17.2807 129.285V129.285C17.7546 129.048 18.1714 128.711 18.5024 128.297L19.8 126.675V126.675C20.5475 125.778 21.3968 124.971 22.3308 124.271L22.725 123.975L25.2 122.4L28.125 120.6L28.9719 120.177C29.3027 120.011 29.6676 119.925 30.0375 119.925H30.2145C30.468 119.925 30.718 119.984 30.9448 120.097V120.097C31.3024 120.276 31.582 120.58 31.7306 120.951L31.7987 121.122C31.8986 121.372 31.95 121.638 31.95 121.907V130.188C31.95 130.989 32.1027 131.782 32.4 132.525V132.525L32.6765 133.078C32.7919 133.309 32.9279 133.529 33.0828 133.735L33.407 134.168C33.4851 134.272 33.5803 134.362 33.6887 134.434V134.434C34.0081 134.647 34.2 135.006 34.2 135.39V138.228C34.2 138.921 34.0882 139.61 33.8689 140.268L33.75 140.625L33.5875 141.275C33.546 141.441 33.525 141.612 33.525 141.783V142.012C33.525 142.42 33.6874 142.812 33.9763 143.101V143.101C34.1239 143.249 34.2999 143.365 34.4937 143.442L34.7804 143.557C35.1402 143.701 35.5241 143.775 35.9115 143.775H36.1555C36.9371 143.775 37.704 143.563 38.3743 143.16L39.0327 142.765C39.4101 142.539 39.7655 142.278 40.0945 141.985L40.6606 141.482C41.3024 140.912 41.8946 140.288 42.431 139.617L43.425 138.375L45.1142 135.841C45.7861 134.833 46.3464 133.756 46.7854 132.627V132.627C47.3917 131.068 47.7606 129.427 47.8798 127.758L47.925 127.125V125.325V124.735C47.925 124.081 48.016 123.431 48.1955 122.803V122.803C48.3149 122.385 48.4728 121.979 48.6672 121.591L48.8411 121.243C48.9801 120.965 49.1438 120.7 49.3303 120.451V120.451C49.5924 120.102 49.8976 119.787 50.2387 119.514L50.85 119.025L51.4486 118.666C51.7931 118.459 52.1872 118.35 52.5889 118.35H52.9638C53.4706 118.35 53.9439 118.603 54.225 119.025V119.025L54.6134 119.672C54.8034 119.989 54.9455 120.332 55.0351 120.69V120.69C55.0949 120.93 55.1309 121.174 55.1426 121.42L55.3304 125.363C55.3435 125.637 55.377 125.91 55.4308 126.179L55.4648 126.349C55.5379 126.715 55.6595 127.069 55.8262 127.402L55.8967 127.543C55.982 127.714 56.0851 127.875 56.2043 128.024V128.024C56.6647 128.6 57.3399 128.963 58.074 129.029L59.4 129.15H62.6137C63.0123 129.15 63.402 129.032 63.7337 128.811L63.7468 128.802C63.8487 128.734 63.9436 128.656 64.0302 128.57L64.2974 128.303C64.4751 128.125 64.7162 128.025 64.9677 128.025V128.025C65.2846 128.025 65.5806 128.183 65.7564 128.447L65.8189 128.541C65.8892 128.646 65.9417 128.762 65.9743 128.885L66.4975 130.847C66.7148 131.662 67.0451 132.442 67.479 133.165V133.165C67.9404 133.934 68.5139 134.63 69.1806 135.23L69.4708 135.491C70.1041 136.061 70.8112 136.543 71.5732 136.924V136.924C72.8896 137.582 74.3413 137.925 75.8131 137.925H76.868C77.3694 137.925 77.8675 137.844 78.3431 137.686L78.9006 137.5C79.3898 137.337 79.8214 137.036 80.1434 136.633L80.326 136.405C80.4732 136.221 80.5741 136.004 80.6203 135.773V135.773C80.717 135.29 80.5657 134.791 80.2173 134.442L80.1 134.325L76.1841 131.027C75.9472 130.828 75.7536 130.582 75.615 130.305V130.305C75.4572 129.989 75.375 129.641 75.375 129.288V129.051C75.375 128.527 75.5174 128.013 75.7871 127.563V127.563C75.961 127.273 76.1844 127.016 76.4472 126.803L80.003 123.925C80.5135 123.512 81.0942 123.194 81.7173 122.986V122.986C81.9887 122.895 82.2667 122.826 82.5489 122.779L82.782 122.741C83.2432 122.664 83.71 122.625 84.1776 122.625H86.0038C88.36 122.625 90.7084 122.898 93.002 123.437L93.375 123.525L94.1126 123.809C95.5675 124.368 96.9655 125.066 98.2874 125.892V125.892C99.3608 126.563 100.38 127.316 101.337 128.145L103.275 129.825L105.075 131.625L108 135.225L108.184 135.501C109.559 137.564 110.777 139.728 111.825 141.975V141.975V141.975C112.122 142.718 112.275 143.511 112.275 144.312V145.518C112.275 146.149 112.147 146.774 111.898 147.355V147.355C111.701 147.815 111.43 148.241 111.097 148.615L110.674 149.092C110.095 149.744 109.42 150.303 108.672 150.752L108.49 150.861C107.865 151.236 107.201 151.541 106.51 151.772L106.461 151.788C105.394 152.144 104.277 152.325 103.152 152.325H101.184C99.4413 152.325 97.7124 152.02 96.075 151.425V151.425L92.025 149.85L89.325 148.725L86.8213 147.63C86.0926 147.311 85.3316 147.071 84.5516 146.915V146.915C83.8356 146.772 83.1073 146.7 82.3771 146.7H78.9449C76.7314 146.7 74.5345 147.081 72.45 147.825V147.825L69.975 148.5L66.6 149.175L63.8618 149.371C63.5877 149.39 63.3124 149.389 63.0386 149.366L61.5411 149.241C61.0361 149.199 60.5707 148.951 60.2541 148.555V148.555C59.9925 148.228 59.85 147.822 59.85 147.403V147.243C59.85 146.886 59.9332 146.534 60.0929 146.214L60.3834 145.633C60.6262 145.148 60.9458 144.704 61.3297 144.32L61.8184 143.832C62.1555 143.495 62.4625 143.129 62.7359 142.738L63.3566 141.851C63.7134 141.342 63.9404 140.752 64.0175 140.135L64.0467 139.901C64.0982 139.489 64.0568 139.07 63.9254 138.676V138.676C63.7617 138.185 63.4644 137.749 63.0668 137.418L62.9617 137.331C62.5439 136.982 62.0456 136.744 61.5123 136.637L60.8857 136.512C60.348 136.405 59.7977 136.374 59.2513 136.422L57.3372 136.588C55.7269 136.728 54.1576 137.171 52.7118 137.894V137.894C51.4787 138.511 50.353 139.322 49.3781 140.297L48.7067 140.968C48.041 141.634 47.5005 142.414 47.1109 143.271V143.271C46.756 144.052 46.5315 144.885 46.4461 145.739L46.35 146.7L46.4833 149.9C46.5429 151.329 47.057 152.702 47.9508 153.82V153.82C48.2329 154.172 48.5498 154.496 48.8967 154.785L49.0032 154.873C49.4828 155.273 50.007 155.616 50.5654 155.895L51.975 156.6L52.1255 156.66C53.5182 157.217 54.9824 157.576 56.475 157.725V157.725L57.1346 157.798C58.0252 157.897 58.867 158.256 59.5554 158.83V158.83C59.7515 158.993 59.9335 159.172 60.0996 159.366L60.1345 159.407C60.8281 160.216 61.2569 161.219 61.3629 162.279L61.425 162.9V165.081C61.425 166.017 61.2287 166.942 60.8489 167.796V167.796C60.6337 168.28 60.3618 168.737 60.0388 169.157L58.6039 171.022C58.3851 171.307 58.14 171.57 57.8718 171.808L56.9763 172.604C56.5084 173.02 55.9043 173.25 55.2783 173.25V173.25C54.8816 173.25 54.4903 173.158 54.1354 172.98L54.0591 172.942C53.579 172.702 53.1745 172.334 52.89 171.879L52.5864 171.393C52.3302 170.983 52.1354 170.538 52.0082 170.072L51.525 168.3L51.4248 167.866C51.0444 166.218 50.3824 164.648 49.4678 163.225V163.225C49.04 162.559 48.5591 161.93 48.0298 161.341L47.818 161.106C47.1405 160.353 46.4026 159.657 45.6117 159.024L44.6099 158.223C43.8215 157.592 42.9793 157.032 42.0929 156.548L41.9912 156.493C41.298 156.115 40.5774 155.79 39.8354 155.52V155.52C38.9304 155.191 37.997 154.945 37.0471 154.787L35.775 154.575L31.275 154.35L26.0311 154.537C25.3338 154.562 24.6482 154.724 24.013 155.012L23.4499 155.268C22.8313 155.549 22.3128 156.012 21.9631 156.595L21.929 156.652C21.8598 156.767 21.7999 156.888 21.7499 157.013V157.013C21.5092 157.614 21.5092 158.286 21.7499 158.887L21.825 159.075V159.075C22.1209 159.667 22.5506 160.182 23.08 160.579L23.4919 160.888C23.8794 161.178 24.2984 161.424 24.7411 161.621L26.1 162.225L27.8039 163.077C28.4636 163.407 29.0659 163.841 29.5875 164.363V164.363C30.1091 164.884 30.5432 165.486 30.8731 166.146L31.1781 166.756C31.2426 166.885 31.2979 167.019 31.3435 167.156V167.156C31.4472 167.466 31.5 167.792 31.5 168.12V172.727C31.5 172.923 31.4544 173.116 31.3667 173.292V173.292C31.306 173.413 31.2261 173.524 31.1301 173.62L30.9725 173.778C30.5839 174.166 30.0836 174.424 29.5416 174.514L29.025 174.6V174.6C27.5375 174.749 26.0896 175.168 24.7525 175.836L24.525 175.95L23.3882 176.582C22.7989 176.909 22.2582 177.317 21.7815 177.793V177.793C21.3621 178.213 20.9957 178.682 20.6905 179.191L19.8 180.675V180.675C19.2023 181.87 18.4602 182.988 17.5903 184.003L17.55 184.05L15.975 185.85L14.8536 187.452C14.552 187.883 14.2956 188.344 14.0884 188.827L13.9512 189.147C13.8009 189.498 13.6933 189.865 13.6306 190.241L13.6183 190.315C13.54 190.785 13.54 191.265 13.6183 191.735L13.6472 191.908C13.6988 192.218 13.7963 192.518 13.9366 192.798L14.2608 193.447C14.4906 193.906 14.9197 194.234 15.4235 194.335V194.335C15.639 194.378 15.861 194.378 16.0765 194.335L16.4238 194.265C16.7233 194.205 17.0134 194.106 17.2865 193.969L17.5784 193.823C18.0078 193.609 18.462 193.447 18.9307 193.343L19.2983 193.262C19.9269 193.122 20.5765 193.104 21.2117 193.21V193.21C21.4702 193.253 21.7249 193.317 21.9735 193.399L24.0093 194.078C24.2028 194.143 24.3916 194.221 24.5741 194.312V194.312C24.9887 194.519 25.4339 194.658 25.8927 194.724L26.2953 194.781C26.6147 194.827 26.9369 194.85 27.2595 194.85H29.5216C30.6855 194.85 31.8446 194.698 32.9692 194.398V194.398C34.0851 194.101 35.1577 193.66 36.1603 193.087L36.225 193.05L37.35 192.375L37.6891 192.149C37.9114 192.001 38.1575 191.892 38.4166 191.827L38.5002 191.806C38.7799 191.736 39.0717 191.729 39.3544 191.786V191.786C39.8037 191.876 40.2069 192.121 40.4932 192.479L40.95 193.05L41.2164 193.494C41.4876 193.946 41.6984 194.432 41.8432 194.939V194.939C41.997 195.477 42.075 196.034 42.075 196.594V201.963C42.075 202.764 41.9223 203.557 41.625 204.3V204.3L40.95 205.65L40.57 206.41C40.3742 206.802 40.2315 207.218 40.1456 207.647L40.0926 207.912C40.0643 208.054 40.05 208.198 40.05 208.342V208.932C40.05 209.136 40.1309 209.331 40.275 209.475V209.475C40.4191 209.619 40.6145 209.7 40.8182 209.7H41.4H43.875L44.2788 209.66C45.508 209.537 46.7266 209.325 47.925 209.025V209.025V209.025C49.1193 208.577 50.2458 207.966 51.2726 207.21L51.9347 206.722C53.3051 205.712 54.53 204.519 55.575 203.175V203.175L57.6 199.8L58.5511 197.898C58.6663 197.667 58.8179 197.457 59 197.275L59.1018 197.173C59.2979 196.977 59.537 196.829 59.8 196.742V196.742C59.9821 196.681 60.1729 196.65 60.3649 196.65H60.6819C61.0197 196.65 61.35 196.75 61.6311 196.937V196.937C61.7925 197.045 61.9345 197.179 62.0509 197.335L62.2216 197.562C62.4391 197.852 62.6084 198.175 62.7231 198.519L62.775 198.675C62.924 199.122 63 199.59 63 200.062V208.125V208.187C63 208.893 63.0774 209.598 63.2307 210.288V210.288C63.3765 210.944 63.5902 211.583 63.8683 212.195L64.0638 212.625C64.4033 213.372 64.8342 214.074 65.3467 214.715L65.5513 214.97C66.0967 215.652 66.7509 216.239 67.4874 216.708V216.708C68.3866 217.28 69.3918 217.665 70.4431 217.841L70.7695 217.895C71.2889 217.981 71.8147 218.025 72.3413 218.025H74.4683C75.5112 218.025 76.5424 217.806 77.4954 217.383L77.597 217.337C77.9151 217.196 78.2242 217.026 78.5139 216.832V216.832C79.1115 216.434 79.6413 215.928 80.0637 215.347L80.4134 214.866C80.9409 214.141 81.225 213.267 81.225 212.37V212.171C81.225 212.024 81.2105 211.877 81.1816 211.733L81.0919 211.285C81.0331 210.99 80.8597 210.731 80.61 210.565V210.565C80.4242 210.441 80.2058 210.375 79.9824 210.375H79.7625C79.3957 210.375 79.0372 210.484 78.732 210.687L78.525 210.825L78.2038 211.039C77.9686 211.196 77.7177 211.328 77.4552 211.433L77.1534 211.554C76.8704 211.667 76.5684 211.725 76.2636 211.725V211.725C75.8294 211.725 75.4033 211.607 75.031 211.384L74.475 211.05L73.9885 210.661C73.5639 210.321 73.1746 209.94 72.8265 209.522L72.4936 209.122C72.3151 208.908 72.162 208.674 72.0374 208.425V208.425C71.8636 208.077 71.747 207.704 71.692 207.319L71.6463 206.999C71.5823 206.551 71.5727 206.098 71.6177 205.648L71.6269 205.556C71.7243 204.582 72.0449 203.643 72.5636 202.813L72.6019 202.752C72.8003 202.435 73.025 202.134 73.2737 201.855L73.7014 201.373C74.3653 200.627 75.1056 199.951 75.9101 199.358L78.975 197.1L83.7 193.95L88.65 191.475L88.7609 191.435C90.3341 190.863 91.9529 190.424 93.6 190.125V190.125L96.5934 189.697C96.6976 189.682 96.8002 189.658 96.9001 189.625V189.625C97.6167 189.386 98.1 188.716 98.1 187.96V187.663C98.1 187.505 98.0827 187.347 98.0484 187.193L97.65 185.4L97.3758 184.303C97.259 183.836 97.2 183.357 97.2 182.875V182.276C97.2 181.669 97.3548 181.071 97.6498 180.54V180.54C98.0841 179.759 98.7956 179.168 99.644 178.885L99.675 178.875V178.875C100.862 178.578 101.974 178.037 102.94 177.286L103.5 176.85L104.85 175.5L105.83 174.52C106.226 174.124 106.66 173.769 107.126 173.458L107.334 173.319C107.628 173.123 107.938 172.955 108.262 172.816L108.318 172.792C108.999 172.5 109.732 172.35 110.472 172.35V172.35C110.774 172.35 111.074 172.375 111.371 172.424L111.404 172.43C111.982 172.526 112.541 172.708 113.065 172.97L113.625 173.25L115.65 174.6L119.025 177.525L120.915 179.415C121.154 179.654 121.36 179.924 121.528 180.217L121.678 180.48C122 181.044 122.125 181.699 122.033 182.341V182.341C121.978 182.727 121.847 183.097 121.647 183.43L121.631 183.457C121.396 183.848 121.079 184.181 120.7 184.433L120.237 184.742C120.029 184.88 119.808 184.997 119.577 185.089V185.089C119.066 185.294 118.514 185.378 117.965 185.336L117.311 185.286C116.376 185.214 115.483 184.861 114.75 184.275V184.275L113.625 183.15L112.565 182.09C112.373 181.898 112.151 181.738 111.908 181.617L111.594 181.46C111.45 181.388 111.291 181.35 111.13 181.35V181.35C110.855 181.35 110.591 181.459 110.396 181.654L110.053 181.997C109.886 182.164 109.746 182.358 109.64 182.57L109.416 183.018C109.223 183.404 109.078 183.813 108.984 184.236L108.695 185.535C108.385 186.93 108.37 188.374 108.65 189.774V189.774C108.962 191.337 109.634 192.805 110.612 194.062L110.7 194.175V194.175C111.595 195.219 112.643 196.121 113.809 196.849L113.85 196.875V196.875C115.195 197.473 116.607 197.908 118.055 198.171L118.35 198.225L118.903 198.286C119.878 198.395 120.864 198.345 121.823 198.14L121.959 198.111C122.994 197.889 123.977 197.474 124.858 196.886V196.886C125.318 196.58 125.747 196.228 126.138 195.837L128.025 193.95L129.825 191.7L131.4 189.675L132.339 188.468C132.76 187.926 133.266 187.456 133.837 187.075V187.075C134.162 186.859 134.505 186.673 134.864 186.519L135.311 186.328C135.702 186.16 136.113 186.045 136.535 185.984L136.618 185.972C137.184 185.892 137.76 185.921 138.315 186.06V186.06C138.947 186.218 139.537 186.514 140.041 186.927L140.957 187.676C141.484 188.108 141.964 188.593 142.39 189.125L142.988 189.873C143.36 190.338 143.657 190.859 143.866 191.417L143.9 191.509C144.115 192.082 144.225 192.688 144.225 193.3V194.57C144.225 195.316 143.886 196.021 143.303 196.487V196.487C143.168 196.596 143.022 196.689 142.867 196.766L140.85 197.775L137.475 199.8L132.75 202.725L129.825 204.75L126.45 207L124.65 208.35L123.736 209.081C123.596 209.193 123.438 209.279 123.269 209.335V209.335C122.995 209.427 122.702 209.438 122.422 209.368L122.365 209.354C122.092 209.286 121.841 209.152 121.632 208.964L119.7 207.225L115.65 204.3V204.3C113.108 202.954 110.421 201.905 107.64 201.174L107.55 201.15L104.4 200.475L100.8 200.025L96.75 199.8L93.2655 199.983C92.7515 200.01 92.2588 200.198 91.8569 200.52L91.8198 200.549C91.5119 200.796 91.273 201.117 91.1266 201.484V201.484C90.9781 201.855 90.9297 202.258 90.9863 202.654L91.0001 202.751C91.0812 203.318 91.3441 203.844 91.7493 204.249L92.475 204.975L92.8555 205.41C93.6498 206.318 94.3515 207.303 94.95 208.35V208.35L95.503 209.594C95.7332 210.112 95.8907 210.66 95.9708 211.221V211.221C96.04 211.705 96.1668 212.18 96.3486 212.634L96.4786 212.959C96.8061 213.778 97.2965 214.522 97.9201 215.145V215.145C98.4852 215.71 99.1495 216.166 99.8799 216.491L100.8 216.9L102.176 217.525C102.89 217.85 103.485 218.392 103.874 219.073L104.043 219.368C104.13 219.522 104.193 219.688 104.227 219.862V219.862C104.335 220.401 104.166 220.959 103.778 221.348L103.725 221.4C103.576 221.549 103.402 221.67 103.211 221.758L100.575 222.975L96.075 225.225L94.5496 226.242C93.3195 227.062 92.1735 228.002 91.1282 229.047L90.9209 229.254C90.3077 229.867 89.7389 230.523 89.2186 231.217L88.5359 232.127C88.1632 232.624 87.8476 233.162 87.5953 233.729L87.4744 234.001C87.2097 234.597 87.0384 235.23 86.9664 235.877L86.917 236.322C86.8726 236.721 86.8945 237.125 86.9817 237.517L87.1954 238.479C87.2625 238.781 87.4437 239.046 87.7012 239.217V239.217C87.8804 239.337 88.0885 239.406 88.3037 239.417L91.2276 239.571C91.9079 239.607 92.5901 239.584 93.2665 239.503L94.6581 239.336C96.7956 239.08 98.8967 238.579 100.92 237.843L104.219 236.643C104.938 236.382 105.63 236.052 106.287 235.658V235.658C107.126 235.155 107.9 234.55 108.592 233.858L109.35 233.1L109.424 233.026C110.421 232.029 111.302 230.921 112.05 229.725V229.725L112.061 229.707C112.485 229 113.181 228.499 113.985 228.32V228.32C114.487 228.209 115.008 228.228 115.5 228.375L115.597 228.404C116.492 228.673 117.237 229.299 117.655 230.135L117.915 230.656C118.055 230.934 118.166 231.227 118.248 231.528L118.8 233.55L120.375 237.375L121.5 239.85L122.096 241.141C122.596 242.224 123.253 243.228 124.046 244.12L124.492 244.622C124.597 244.741 124.711 244.851 124.833 244.952L125.46 245.475C125.802 245.76 126.253 245.874 126.689 245.787V245.787C126.973 245.73 127.234 245.591 127.44 245.385L129.15 243.675V243.675C130.048 242.627 130.857 241.505 131.567 240.321L131.85 239.85V239.85C132.294 239.11 132.564 238.278 132.639 237.418L132.824 235.29C132.924 234.134 132.89 232.97 132.721 231.822L131.85 225.9L131.625 224.775L131.338 223.628C131.231 223.197 131.213 222.749 131.286 222.311L131.354 221.898C131.384 221.718 131.452 221.546 131.554 221.395V221.395C131.743 221.11 132.038 220.912 132.374 220.845L132.646 220.791C132.864 220.747 133.087 220.741 133.307 220.772L133.672 220.825C134.251 220.907 134.805 221.112 135.298 221.426L136.412 222.135C136.82 222.395 137.209 222.683 137.577 222.998L138.6 223.875L139.354 224.554C140.343 225.443 141.155 226.511 141.75 227.7V227.7V227.7C142.199 228.898 142.54 230.133 142.769 231.391L142.875 231.975L143.034 233.085C143.076 233.383 143.235 233.651 143.476 233.832V233.832C143.8 234.075 144.23 234.127 144.602 233.967L145.276 233.678C145.474 233.593 145.661 233.482 145.829 233.346L146.936 232.461C147.514 231.999 147.934 231.367 148.138 230.655V230.655C148.229 230.337 148.275 230.007 148.275 229.675V228.15L148.5 222.525L148.369 220.43C148.307 219.444 148.508 218.46 148.949 217.577L149.016 217.442C149.122 217.231 149.246 217.03 149.388 216.841L149.432 216.782C149.708 216.414 150.053 216.103 150.447 215.867V215.867C150.796 215.657 151.179 215.509 151.579 215.429L152.1 215.325L152.669 215.23C153.187 215.144 153.715 215.129 154.237 215.187V215.187C155.053 215.278 155.839 215.544 156.543 215.966L157.051 216.27C157.499 216.54 157.922 216.85 158.313 217.197L159.75 218.475L162.225 220.725L164.25 222.3V222.3C165.741 223.194 167.363 223.849 169.057 224.24L169.425 224.325L170.995 224.482C171.444 224.527 171.898 224.483 172.33 224.353L173.353 224.047C173.714 223.938 174.007 223.671 174.147 223.32V223.32C174.291 222.961 174.258 222.555 174.059 222.223L173.923 221.996C173.776 221.752 173.574 221.547 173.332 221.398L170.775 219.825L169.627 219.06C169.044 218.671 168.5 218.225 168.004 217.729L167.725 217.45C167.211 216.936 166.771 216.353 166.418 215.717L166.227 215.373C165.961 214.894 165.77 214.376 165.663 213.839V213.839C165.474 212.897 165.546 211.922 165.869 211.018L166.242 209.971C166.414 209.491 166.624 209.026 166.872 208.581L168.75 205.2L171.675 199.8L173.25 196.425L173.571 195.591C174.104 194.205 174.422 192.746 174.515 191.264L174.534 190.957C174.578 190.254 174.556 189.548 174.469 188.849V188.849C174.259 187.171 173.675 185.561 172.761 184.139L172.694 184.035C172.315 183.446 171.886 182.892 171.409 182.379L169.2 180L166.5 177.3V177.3C166.061 176.861 165.77 176.296 165.668 175.683L165.338 173.702C165.213 172.954 164.991 172.225 164.677 171.535V171.535C164.246 170.586 163.648 169.723 162.911 168.986L162.675 168.75V168.75C161.777 168.001 160.814 167.333 159.799 166.753L159.75 166.725L157.5 165.825L155.7 164.925L154.103 163.967C153.668 163.706 153.254 163.412 152.865 163.087L152.64 162.9C152.281 162.601 151.953 162.266 151.661 161.901V161.901C151.354 161.518 151.089 161.104 150.87 160.665L150.753 160.43C150.601 160.127 150.471 159.814 150.364 159.492L150.193 158.98C149.967 158.302 149.896 157.582 149.985 156.873V156.873C150.045 156.394 150.177 155.926 150.377 155.487L150.794 154.569C151.06 153.983 151.476 153.478 151.999 153.104V153.104C152.508 152.741 153.101 152.514 153.723 152.445L154.216 152.39C154.604 152.347 154.996 152.345 155.385 152.383L155.676 152.413C156.583 152.503 157.461 152.778 158.257 153.22V153.22C158.8 153.522 159.298 153.898 159.737 154.337L159.998 154.598C160.432 155.031 160.821 155.507 161.162 156.018L161.308 156.237C161.768 156.927 162.155 157.663 162.463 158.433L162.9 159.525L164.25 162L165.825 164.25V164.25C166.721 165.595 167.783 166.822 168.984 167.903L169.425 168.3L169.787 168.549C171.941 170.03 174.23 171.302 176.625 172.35V172.35L180.225 173.7L181.865 174.147C182.42 174.299 182.959 174.505 183.474 174.762V174.762C183.858 174.954 184.226 175.173 184.577 175.419L185.598 176.134C186.065 176.461 186.503 176.828 186.906 177.231L186.938 177.263C187.56 177.885 188.092 178.59 188.519 179.359V179.359C188.839 179.935 189.098 180.542 189.291 181.172L189.461 181.724C189.751 182.667 189.87 183.654 189.812 184.639V184.639C189.723 186.166 189.21 187.639 188.333 188.892L188.1 189.225L186.075 191.7L183.6 194.175L181.794 196.309C181.349 196.835 180.957 197.403 180.622 198.006V198.006C180.209 198.749 179.887 199.54 179.663 200.36L179.535 200.829C179.395 201.342 179.303 201.867 179.259 202.397L179.222 202.839C179.142 203.802 179.271 204.77 179.601 205.678L179.727 206.023C179.908 206.521 180.173 206.983 180.512 207.389V207.389C180.916 207.875 181.417 208.271 181.981 208.553L182.168 208.647C182.669 208.897 183.208 209.065 183.763 209.145L183.959 209.173C184.318 209.224 184.682 209.224 185.041 209.173L185.509 209.106C185.879 209.053 186.229 208.902 186.522 208.668V208.668C186.956 208.32 187.235 207.815 187.296 207.262L187.425 206.1V206.1C187.425 204.754 187.572 203.412 187.864 202.098L188.063 201.206C188.237 200.421 188.495 199.657 188.832 198.926V198.926C189.39 197.718 190.157 196.618 191.097 195.678L191.7 195.075L194.4 192.825L195.292 192.156C196.496 191.253 197.634 190.266 198.698 189.202L200.141 187.759C200.662 187.238 201.131 186.666 201.54 186.052V186.052C202.323 184.878 202.877 183.566 203.173 182.186L203.4 181.125L203.647 179.399C203.781 178.455 203.776 177.496 203.631 176.553V176.553C203.478 175.557 203.171 174.591 202.72 173.69L202.664 173.577C202.405 173.06 202.104 172.565 201.764 172.097L200.475 170.325L199.575 169.2L198.45 168.075L197.882 167.507C197.813 167.438 197.775 167.346 197.775 167.249V167.249C197.775 167.075 197.898 166.925 198.068 166.891L198.9 166.725L200.272 166.382C201.155 166.161 202.011 165.845 202.825 165.438V165.438C203.804 164.948 204.715 164.332 205.533 163.604L206.325 162.9L207.29 161.814C207.845 161.19 208.33 160.507 208.735 159.776L208.984 159.328C209.161 159.01 209.308 158.676 209.423 158.331V158.331C209.607 157.78 209.708 157.205 209.723 156.624L209.925 148.95L209.718 139.824C209.706 139.309 209.732 138.793 209.796 138.282V138.282C209.882 137.596 210.035 136.919 210.254 136.263L210.352 135.969C210.666 135.026 211.083 134.12 211.595 133.267L212.175 132.3L214.2 129.15L215.55 127.35L216.358 125.895C216.566 125.521 216.675 125.1 216.675 124.672V124.441C216.675 124.136 216.592 123.837 216.435 123.575V123.575C216.161 123.119 215.688 122.819 215.159 122.766L214.329 122.683C213.946 122.645 213.559 122.673 213.185 122.766L211.863 123.097C211.322 123.232 210.791 123.408 210.276 123.623L210.08 123.704C208.932 124.183 207.852 124.812 206.87 125.576L206.325 126L203.175 128.475L202.366 129.217C201.108 130.37 199.948 131.627 198.9 132.975V132.975L198.319 133.556C198.257 133.618 198.185 133.67 198.106 133.71V133.71C197.895 133.815 197.65 133.825 197.432 133.738L196.828 133.496C196.709 133.449 196.595 133.392 196.487 133.325L192.6 130.95L188.775 129.15L185.175 127.35L182.475 126L181.146 125.262C180.69 125.008 180.309 124.639 180.04 124.192L179.992 124.112C179.849 123.873 179.746 123.607 179.692 123.333V123.333C179.6 122.874 179.642 122.394 179.816 121.96L179.857 121.858C179.951 121.622 180.093 121.407 180.273 121.227V121.227C180.535 120.965 180.869 120.786 181.233 120.713L181.523 120.655C181.707 120.619 181.895 120.6 182.083 120.6H183.375L189.45 120.825L193.5 120.6L193.895 120.534C194.528 120.429 195.142 120.229 195.716 119.942L196.022 119.789C196.438 119.581 196.818 119.307 197.147 118.978L197.333 118.792C197.625 118.5 197.972 118.271 198.355 118.118V118.118C198.715 117.974 199.099 117.9 199.487 117.9H199.538C199.861 117.9 200.182 117.947 200.491 118.04L201.286 118.278C201.943 118.475 202.621 118.597 203.305 118.639L204.059 118.687C205.259 118.761 206.461 118.605 207.601 118.225V118.225C208.248 118.009 208.87 117.723 209.455 117.372L209.7 117.225L210.718 116.498C211.089 116.233 211.437 115.938 211.759 115.616L212.093 115.282C212.148 115.227 212.198 115.169 212.245 115.107L212.66 114.553C212.777 114.398 212.795 114.191 212.709 114.017V114.017C212.655 113.909 212.564 113.824 212.453 113.776L211.349 113.303C211.15 113.218 210.944 113.15 210.734 113.1L206.325 112.05L199.35 110.25L195.75 109.575L192.6 109.35L191.13 109.442C189.716 109.53 188.319 109.802 186.975 110.25V110.25L184.725 110.7L184.432 110.749C183.73 110.866 183.016 110.892 182.308 110.828V110.828C181.376 110.743 180.465 110.502 179.613 110.115L179.119 109.89C178.658 109.681 178.225 109.415 177.83 109.099L177.653 108.957C177.418 108.77 177.205 108.557 177.018 108.322L176.637 107.846C176.481 107.652 176.375 107.423 176.326 107.178V107.178C176.231 106.703 176.362 106.211 176.681 105.847L177.35 105.082C177.615 104.78 177.928 104.523 178.278 104.324L178.828 104.009C179.158 103.82 179.51 103.672 179.875 103.568V103.568C180.55 103.375 181.259 103.335 181.951 103.45L183.6 103.725L191.025 105.075L193.146 105.277C194.875 105.442 196.618 105.388 198.334 105.117V105.117C199.459 104.939 200.568 104.669 201.649 104.309L203.4 103.725L207 102.15L210.15 100.575L211.75 99.7751C211.881 99.7093 211.996 99.6137 212.084 99.4959V99.4959C212.387 99.0919 212.321 98.5214 211.933 98.1981L211.499 97.8364C211.351 97.7132 211.181 97.6188 210.999 97.5579L209.947 97.2073C209.483 97.0528 209.006 96.9445 208.521 96.8839L206.596 96.6433C204.77 96.415 202.926 96.3739 201.091 96.5207L200.674 96.5541C199.045 96.6844 197.434 96.9761 195.863 97.425V97.425C194.291 97.8739 192.68 98.1656 191.051 98.2959L189.55 98.416C188.435 98.5052 187.315 98.5013 186.201 98.4044L184.288 98.2381C183.237 98.1467 182.21 97.8741 181.253 97.4322V97.4322C180.275 96.981 179.385 96.3603 178.624 95.5988L178.2 95.175L177.594 94.5693C177.103 94.0782 176.717 93.4925 176.459 92.8477L176.112 91.9801C176.006 91.7147 175.971 91.4261 176.012 91.1431L176.041 90.9375C176.121 90.3757 176.547 89.9256 177.104 89.8143V89.8143C177.234 89.7882 177.367 89.7817 177.499 89.7949L179.55 90V90C181.496 90.4492 183.478 90.73 185.472 90.8392L198.9 91.575L212.237 90.7667C213.227 90.7067 214.181 90.3766 214.996 89.8124L215.269 89.6237C216.175 88.9961 216.822 88.0601 217.09 86.9904L217.125 86.851C217.273 86.2585 217.281 85.6396 217.149 85.0434L217.038 84.5462C216.948 84.1405 216.744 83.7689 216.45 83.475V83.475C216.156 83.1811 215.785 82.9771 215.379 82.8869L214.4 82.6694C214.117 82.6066 213.83 82.5656 213.541 82.547L207 82.125L201.6 81.45L200.806 81.2913C200.594 81.2488 200.408 81.1239 200.288 80.9439V80.9439C200.125 80.7003 200.106 80.3884 200.237 80.1266L200.334 79.9326C200.426 79.7474 200.566 79.5896 200.738 79.4748L202.54 78.2733C202.963 77.9916 203.362 77.6759 203.733 77.3294L206.55 74.7L208.575 72.675L210.303 70.79C210.8 70.2477 211.249 69.6629 211.644 69.0423L212.415 67.8303C212.554 67.6112 212.661 67.3732 212.733 67.1236L212.972 66.2866C213.037 66.0572 212.999 65.8106 212.866 65.6121V65.6121C212.716 65.3859 212.462 65.25 212.19 65.25H212.137C212.014 65.25 211.891 65.2751 211.778 65.3237L210.821 65.7338C210.524 65.8611 210.238 66.0121 209.966 66.1855L207.9 67.5L203.85 69.525L199.575 71.1L198.739 71.323C197.049 71.7735 195.324 72.0762 193.582 72.2276L193.078 72.2714C191.712 72.3903 190.338 72.3927 188.971 72.2788L186.267 72.0535C185.841 72.018 185.422 71.9239 185.022 71.7739L184.418 71.5474C184.03 71.4019 183.688 71.1541 183.429 70.8303L183.376 70.764C183.084 70.3989 182.925 69.9453 182.925 69.4778V69.4778C182.925 68.9318 183.142 68.4081 183.528 68.022L183.693 67.857C183.929 67.6212 184.208 67.4325 184.514 67.3011L184.959 67.1105C185.401 66.9211 185.867 66.7947 186.344 66.7351L187.508 66.5897C188.648 66.4471 189.765 66.159 190.832 65.7323L191.387 65.5103C192.195 65.1872 192.978 64.8062 193.731 64.3703L196.875 62.55L201.6 59.175L205.425 56.025L207.9 53.775L209.925 51.975L210.257 51.7537C211.829 50.7059 213.533 49.8723 215.325 49.275V49.275L217.261 48.5008C217.468 48.4178 217.656 48.2935 217.814 48.1355L218.008 47.9422C218.298 47.6524 218.414 47.2317 218.315 46.834V46.834C218.272 46.6635 218.192 46.5049 218.079 46.3699L217.662 45.8698C217.308 45.4445 216.869 45.0972 216.374 44.8496L216.028 44.6763C215.561 44.4431 215.066 44.2732 214.555 44.1709L214.338 44.1276C213.502 43.9604 212.644 43.9366 211.8 44.0571L211.222 44.1397C210.36 44.2628 209.517 44.4883 208.709 44.8115L206.55 45.675L202.05 48.15L198 50.85L194.4 53.325L193.469 54.0701C193.341 54.1726 193.195 54.2516 193.04 54.3034L192.841 54.3698C192.684 54.4219 192.516 54.4219 192.359 54.3698V54.3698C192.092 54.2807 191.896 54.0512 191.85 53.7733L191.772 53.309C191.725 53.0253 191.758 52.7341 191.868 52.4682L192.869 50.0356C193.139 49.3801 193.473 48.7529 193.866 48.1631L194.175 47.7C194.774 46.8022 195.459 45.9657 196.222 45.2027L196.488 44.9369C197.344 44.0807 198.276 43.3033 199.271 42.6141L200.7 41.625L202.5 40.5L203.729 39.7978C203.95 39.6715 204.11 39.4603 204.172 39.2132V39.2132C204.251 38.8948 204.158 38.558 203.926 38.3259L203.837 38.2369C203.698 38.0979 203.526 37.9967 203.337 37.9427L202.446 37.688C202.182 37.6128 201.913 37.5606 201.641 37.5319L198.567 37.2084C198.043 37.1532 197.534 37.0043 197.063 36.7688L196.994 36.7346C196.617 36.5461 196.273 36.2981 195.975 36L195.847 35.8724C195.634 35.6589 195.456 35.4123 195.321 35.1422V35.1422C195.159 34.8172 195.061 34.4637 195.033 34.1013L194.943 32.9337C194.881 32.1317 194.93 31.325 195.088 30.5363L195.446 28.7433C195.648 27.7329 195.934 26.741 196.301 25.778L196.829 24.3933C197.305 23.1422 198.012 21.9915 198.913 21.0008V21.0008C199.502 20.3527 200.169 19.7793 200.897 19.2935L201.475 18.9081C202.156 18.4543 202.889 18.0837 203.657 17.8042V17.8042C204.532 17.4862 205.445 17.2888 206.373 17.2175L207.688 17.1163C207.829 17.1054 207.971 17.1078 208.111 17.1234L209.484 17.276C209.741 17.3046 209.983 17.1497 210.065 16.9044V16.9044C210.119 16.7439 210.095 16.5676 210.001 16.4268L209.5 15.6751C209.335 15.4272 209.125 15.2123 208.881 15.0414L207.74 14.2433C207.248 13.8985 206.725 13.5998 206.177 13.351L206.14 13.3342C205.071 12.8484 203.927 12.5502 202.757 12.4526L202.658 12.4444C202.103 12.3982 201.546 12.3949 200.991 12.4345L200.626 12.4607C199.33 12.5532 198.052 12.8078 196.82 13.2185L195.975 13.5L193.725 14.4L191.25 15.525L189.45 16.65L188.736 17.1852C188.613 17.2778 188.475 17.3499 188.329 17.3987L188.25 17.4251C188.006 17.5062 187.744 17.5062 187.5 17.4251V17.4251C187.304 17.3595 187.127 17.2434 186.99 17.0883L185.4 15.3V15.3C184.351 14.2513 183.23 13.2784 182.043 12.3886L182.025 12.375L180.45 11.25L178.425 9.9L177.835 9.60476C176.731 9.05324 175.571 8.6241 174.375 8.325V8.325L174.034 8.2569C172.77 8.00404 171.473 7.96196 170.195 8.13236L169.876 8.17485C169.128 8.27457 168.396 8.46673 167.695 8.74693V8.74693C166.902 9.06407 166.158 9.49103 165.484 10.0153L165.273 10.1794C164.742 10.5923 164.25 11.0529 163.803 11.5555L163.414 11.9935C162.923 12.546 162.496 13.1527 162.142 13.8017L162.092 13.8935C161.585 14.8241 161.243 15.8358 161.081 16.8835V16.8835C160.945 17.773 160.94 18.6778 161.067 19.5687L161.213 20.5887C161.287 21.1106 161.43 21.6205 161.638 22.1051V22.1051C161.878 22.6651 162.202 23.1853 162.598 23.6479L162.856 23.9488C163.184 24.3318 163.554 24.6777 163.957 24.9804V24.9804C164.743 25.57 165.646 25.9853 166.606 26.1985L167.175 26.325L167.686 26.4102C168.176 26.4918 168.656 26.2214 168.841 25.7604V25.7604C168.928 25.543 168.94 25.3028 168.876 25.0777L168.631 24.2227C168.563 23.9821 168.411 23.7738 168.203 23.635V23.635C167.976 23.4842 167.817 23.2518 167.758 22.9864L167.584 22.2013C167.463 21.6606 167.493 21.0974 167.668 20.572L167.692 20.5C167.797 20.1851 167.948 19.8877 168.141 19.6176L168.412 19.2389C168.783 18.7191 169.262 18.2859 169.817 17.969V17.969C170.301 17.6922 170.834 17.5095 171.386 17.4306L171.502 17.4141C171.915 17.355 172.335 17.355 172.748 17.4141V17.4141C173.375 17.5036 173.976 17.7273 174.509 18.0698L175.568 18.7507C176.418 19.2972 177.182 19.9672 177.835 20.7386L178.784 21.8602C179.144 22.2857 179.461 22.7454 179.732 23.2327V23.2327C180.207 24.0879 180.532 25.0182 180.693 25.9832L180.837 26.8461C181.028 27.994 181.072 29.1616 180.966 30.3205L180.805 32.0934C180.719 33.041 180.474 33.9674 180.08 34.8336V34.8336C179.729 35.6068 179.263 36.3228 178.699 36.9576L178.159 37.565C177.888 37.8699 177.572 38.1318 177.222 38.3416L177.133 38.3952C176.797 38.5969 176.429 38.7393 176.044 38.8162V38.8162C175.684 38.8883 175.314 38.9018 174.949 38.8562L174.694 38.8242C174.038 38.7422 173.405 38.5311 172.831 38.2032L172.125 37.8L171.374 37.4994C170.38 37.1019 169.334 36.8508 168.268 36.7539V36.7539C167.69 36.7014 167.109 36.6944 166.531 36.733L165.725 36.7867C164.605 36.8613 163.515 37.1783 162.53 37.7157V37.7157C161.88 38.0701 161.284 38.5157 160.761 39.039L160.671 39.1295C160.208 39.5917 159.8 40.1048 159.454 40.6591L158.85 41.625L158.422 42.587C158.108 43.2938 157.868 44.0312 157.706 44.7874L157.672 44.9479C157.41 46.1724 157.373 47.4344 157.563 48.6721L157.587 48.8258C157.679 49.4237 157.832 50.0105 158.044 50.5769L158.228 51.0656C158.342 51.3709 158.491 51.662 158.672 51.9332L159.191 52.7115C159.262 52.8186 159.361 52.9053 159.476 52.9629V52.9629C159.651 53.0507 159.855 53.0651 160.041 53.0031L160.15 52.9666C160.33 52.9067 160.489 52.7979 160.61 52.6525L161.145 52.0111C161.413 51.6891 161.731 51.4118 162.087 51.1896L162.657 50.8332C163.118 50.5451 163.606 50.3039 164.115 50.113L164.638 49.9171C164.978 49.7893 165.331 49.6949 165.69 49.635L165.866 49.6057C166.286 49.5356 166.715 49.5269 167.138 49.5797L167.864 49.6705C168.15 49.7062 168.421 49.8159 168.652 49.9887V49.9887C169.003 50.2521 169.235 50.6441 169.297 51.0786L169.374 51.6181C169.408 51.8552 169.413 52.0955 169.389 52.3337L169.328 52.9433C169.243 53.7923 169.023 54.6223 168.677 55.402L168.162 56.5611C167.656 57.6998 167.018 58.775 166.261 59.7648L164.475 62.1L160.2 66.6L156.375 71.325L152.1 78.3L150.525 81.225L148.725 85.95L147.375 90.225L147.313 90.5468C146.605 94.2271 146.175 97.9553 146.025 101.7V101.7L146.25 104.4L146.636 106.177C147.128 108.437 147.829 110.647 148.73 112.777L148.915 113.216C149.538 114.686 150.272 116.107 151.113 117.465V117.465C152.218 119.25 153.502 120.919 154.943 122.446L156.6 124.2L156.954 124.5C159.712 126.845 162.682 128.929 165.825 130.725V130.725L169.875 132.75L175.5 135.225L180.9 137.25L184.275 138.6L187.007 140.046C187.734 140.431 188.421 140.887 189.057 141.408V141.408C190.063 142.231 190.933 143.207 191.635 144.3L192.6 145.8L193.537 147.674C193.811 148.222 194.006 148.806 194.115 149.409V149.409C194.302 150.438 194.237 151.496 193.925 152.494L193.71 153.183C193.422 154.106 192.993 154.978 192.439 155.77L192.291 155.981C191.898 156.542 191.442 157.055 190.93 157.509L190.848 157.583C190.073 158.271 189.175 158.807 188.201 159.161V159.161C187.536 159.403 186.844 159.557 186.14 159.621L185.66 159.665C185.038 159.722 184.412 159.729 183.788 159.688L183.725 159.683C182.155 159.579 180.619 159.184 179.193 158.518L177.975 157.95L173.925 155.7L171.45 154.125L166.725 150.3L159.075 143.55L153.675 137.925L148.725 132.75L145.125 128.7L143.55 126.9L141.3 124.425L139.725 122.625L137.475 120.15L136.657 119.127C136.005 118.312 135.457 117.42 135.025 116.47V116.47C134.709 115.775 134.457 115.052 134.272 114.312L134.228 114.139C133.993 113.199 133.853 112.237 133.809 111.269L133.745 109.857C133.682 108.471 133.719 107.082 133.857 105.701L133.875 105.525L134.325 101.25L134.775 98.1L135.225 95.175L135.617 92.8252C135.655 92.5921 135.713 92.3624 135.787 92.1382L136.033 91.4022C136.093 91.2199 136.196 91.0543 136.332 90.9184V90.9184C136.624 90.6258 137.044 90.4988 137.45 90.5799L137.486 90.5871C137.77 90.6441 138.066 90.6045 138.326 90.4746L138.708 90.2834C139.08 90.0973 139.401 89.8229 139.643 89.4842L140.13 88.8031C140.31 88.5514 140.469 88.286 140.608 88.0094L140.62 87.985C140.921 87.3823 141.124 86.7349 141.219 86.0678L141.3 85.5L141.525 79.425L141.075 74.025V73.7147C141.075 73.1859 141.247 72.6713 141.564 72.2482V72.2482C141.687 72.0834 141.831 71.9349 141.992 71.8062L142.875 71.1L144.45 69.975L145.338 69.2845C146.093 68.6969 146.777 68.0224 147.375 67.275V67.275L148.316 65.9572C148.439 65.786 148.547 65.6055 148.641 65.4173V65.4173C148.846 65.0087 148.979 64.5684 149.036 64.1152L149.066 63.8756C149.138 63.2957 149.117 62.7078 149.002 62.1347L148.95 61.875L148.612 60.8618C148.538 60.6387 148.428 60.4291 148.287 60.241V60.241C147.988 59.8423 147.834 59.3535 147.851 58.8555L148.05 52.875L147.896 49.3365C147.849 48.2493 147.674 47.1714 147.375 46.125V46.125V46.125C146.927 45.0787 146.355 44.0898 145.672 43.1792L145.35 42.75L145.279 42.655C144.877 42.1194 144.524 41.5488 144.225 40.95V40.95V40.95C143.935 40.3695 143.832 39.7051 143.939 39.0649V39.0649C143.98 38.8225 144.049 38.5858 144.146 38.36L144.383 37.8063C144.577 37.353 144.813 36.9186 145.086 36.5083L145.275 36.2245C145.475 35.9256 145.703 35.647 145.957 35.393V35.393C146.448 34.9022 147.028 34.5095 147.666 34.2361L148.275 33.975L149.116 33.6948C149.901 33.4331 150.642 33.0554 151.316 32.5744L151.429 32.4939C151.726 32.2817 152.005 32.0453 152.263 31.7871L152.664 31.3862C153.034 31.0159 153.325 30.5743 153.52 30.0881V30.0881C153.623 29.8301 153.698 29.5618 153.744 29.2877L153.752 29.2383C153.85 28.6524 153.826 28.0526 153.682 27.4763L153.675 27.45L153.225 26.325L152.1 24.3L150.975 22.275L149.85 20.475L149.449 19.9406C149.268 19.6993 149.137 19.4243 149.064 19.1316V19.1316C148.989 18.8304 148.976 18.517 149.027 18.2107L149.073 17.9374C149.14 17.5321 149.277 17.1414 149.477 16.7823L150.3 15.3L150.724 14.3098C150.891 13.9208 151.021 13.5171 151.113 13.1039L151.205 12.6894C151.35 12.037 151.357 11.3615 151.226 10.7061V10.7061C151.062 9.88311 150.684 9.1176 150.131 8.48594L150.013 8.35076C149.607 7.88708 149.125 7.49701 148.586 7.1978V7.1978C147.792 6.75655 146.898 6.525 145.99 6.525H145.575L145.056 6.5827C144.062 6.69313 143.1 7.0001 142.226 7.48576V7.48576C141.76 7.74452 141.323 8.05192 140.922 8.40279L139.725 9.45L138.15 10.8L137.336 11.3428C136.98 11.5803 136.6 11.7801 136.202 11.9391L136.047 12.0013C135.799 12.1002 135.544 12.1763 135.282 12.2285V12.2285C134.798 12.3255 134.3 12.3393 133.811 12.2694L133.741 12.2595C133.234 12.187 132.741 12.0331 132.283 11.8039L131.625 11.475ZM111.546 18.8557C111.582 19.0335 111.652 19.2026 111.752 19.3535V19.3535C111.944 19.6408 112.236 19.8464 112.571 19.9302L112.733 19.9707C112.877 20.0068 113.025 20.025 113.174 20.025H113.545C113.897 20.025 114.249 19.9864 114.593 19.91L115.065 19.805C115.749 19.653 116.399 19.3756 116.982 18.9868L117.147 18.8771C117.348 18.7427 117.536 18.5887 117.708 18.4173L117.951 18.1743C118.356 17.7691 118.619 17.2433 118.7 16.6759L118.734 16.4358C118.777 16.1339 118.74 15.826 118.627 15.5429V15.5429C118.45 15.1004 118.1 14.7498 117.657 14.5729L117.496 14.5082C117.316 14.4364 117.128 14.3892 116.935 14.3678L115.724 14.2332C115.376 14.1946 115.025 14.2 114.678 14.2496L114.37 14.2936C113.881 14.3634 113.418 14.5552 113.023 14.8513V14.8513C112.825 14.9999 112.647 15.1728 112.492 15.3661L112.394 15.4887C112.019 15.9574 111.75 16.5014 111.604 17.0837L111.523 17.4079C111.426 17.7978 111.416 18.2044 111.495 18.5985L111.546 18.8557ZM98.9611 38.3417C99.1364 38.1313 99.3357 37.942 99.5548 37.7776L99.8211 37.5779C100.022 37.4275 100.25 37.3187 100.494 37.2579L100.644 37.2203C100.893 37.1581 101.154 37.1681 101.398 37.2493V37.2493C101.597 37.3155 101.777 37.4271 101.925 37.5753L102.219 37.8688C102.323 37.9728 102.434 38.0693 102.552 38.1575L102.57 38.1716C103.033 38.5183 103.575 38.7428 104.147 38.8246L104.508 38.8761C104.736 38.9087 104.965 38.925 105.196 38.925H107.55L110.475 39.15L111.628 39.3807C112.348 39.5246 113.02 39.8461 113.584 40.316L113.873 40.5568C114.007 40.6684 114.124 40.7986 114.221 40.9436V40.9436C114.419 41.2412 114.525 41.5909 114.525 41.9485V43.5438C114.525 44.2055 114.371 44.8581 114.075 45.45V45.45V45.45C113.933 45.7334 113.673 45.9442 113.366 46.0211V46.0211C113.099 46.0878 112.816 46.0506 112.575 45.9169L111.361 45.2421C111.071 45.0812 110.765 44.952 110.448 44.8568L108.675 44.325L105.525 43.65L101.7 42.975L98.775 42.75L97.3522 42.5722C97.1367 42.5452 96.975 42.362 96.975 42.1449V42.1449C96.975 42.0986 96.9825 42.0526 96.9971 42.0087L97.2879 41.1362C97.3792 40.8624 97.4898 40.5955 97.6188 40.3374L97.7083 40.1584C97.9686 39.6379 98.2882 39.1492 98.6607 38.7022L98.9611 38.3417ZM117 44.55L114.975 46.575L114.814 46.7362C114.773 46.777 114.75 46.8325 114.75 46.8903V46.8903C114.75 46.9728 114.797 47.0483 114.87 47.0852L115.2 47.25L116.55 48.15L119.025 49.725L119.786 50.2008C120.473 50.6297 121.234 50.9244 122.03 51.0691L122.24 51.1072C122.94 51.2345 123.658 51.2205 124.352 51.0662L124.526 51.0277C125.054 50.9102 125.556 50.696 126.006 50.3957V50.3957C126.448 50.101 126.833 49.7284 127.142 49.2961L127.463 48.8471C127.687 48.5329 127.887 48.2015 128.059 47.8561L128.21 47.5544C128.534 46.9062 128.746 46.2076 128.836 45.4885V45.4885C128.895 45.0143 128.901 44.535 128.853 44.0596L128.759 43.1114C128.72 42.7248 128.6 42.3507 128.408 42.0133V42.0133C128.021 41.3361 127.366 40.8535 126.604 40.6843L126.345 40.6266C125.968 40.5428 125.579 40.5245 125.196 40.5724L124.63 40.6432C124.194 40.6976 123.765 40.7949 123.349 40.9336L121.95 41.4L120.375 42.075V42.075C119.328 42.6735 118.343 43.3752 117.435 44.1695L117 44.55ZM96.8478 47.1962C96.6379 47.2312 96.4441 47.3309 96.2936 47.4814V47.4814C96.1511 47.6239 96.0539 47.8055 96.0144 48.0032L95.9501 48.3248C95.8843 48.6535 95.8981 48.9932 95.9902 49.3155L96.0905 49.6666C96.2286 50.1502 96.4663 50.5996 96.7883 50.986L97.0866 51.3439C97.3117 51.6141 97.5609 51.8633 97.8311 52.0884L97.9585 52.1946C98.5002 52.646 99.1019 53.0203 99.7463 53.3067L99.902 53.3759C100.499 53.6412 101.123 53.8396 101.764 53.9677L103.05 54.225L103.496 54.2655C104.845 54.3882 106.203 54.3746 107.55 54.225V54.225L108.324 54.0701C108.553 54.0244 108.763 53.912 108.928 53.7471V53.7471C109.058 53.6175 109.216 53.5198 109.39 53.4618L109.8 53.325L110.517 53.1815C110.786 53.1278 111.063 53.1344 111.328 53.2008L111.436 53.2277C111.69 53.2914 111.923 53.4231 112.109 53.6088V53.6088C112.219 53.7189 112.311 53.846 112.38 53.9853L112.5 54.225C112.649 54.5231 112.749 54.8432 112.796 55.1731L112.845 55.5126C112.915 56.0017 112.915 56.4983 112.845 56.9874L112.812 57.2155C112.754 57.621 112.66 58.0205 112.53 58.409L112.275 59.175L112.104 59.6023C111.919 60.0658 111.789 60.5497 111.719 61.0439L111.693 61.225C111.631 61.6564 111.627 62.0941 111.681 62.5265L111.784 63.3469C111.811 63.5627 111.888 63.7692 112.008 63.9501V63.9501C112.181 64.2093 112.435 64.4035 112.731 64.502L112.95 64.575L113.338 64.6721C113.674 64.7561 114.026 64.7561 114.362 64.6721V64.6721C114.618 64.608 114.861 64.496 115.076 64.3422L116.325 63.45L118.35 61.65L118.898 61.1016C119.43 60.5696 119.889 59.969 120.262 59.3157L120.365 59.1355C120.522 58.8623 120.656 58.577 120.766 58.2823L121.009 57.6349C121.184 57.1686 121.243 56.6668 121.181 56.1727L121.172 56.1038C121.093 55.4694 120.805 54.8796 120.352 54.4275V54.4275C120.071 54.1456 119.733 53.9254 119.362 53.7809L115.875 52.425L111.375 51.3L107.1 49.725L103.95 48.825L100.8 47.925L99.3289 47.3733C99.11 47.2912 98.8848 47.227 98.6556 47.1811L98.3633 47.1227C98.0405 47.0581 97.7086 47.0527 97.3838 47.1069L96.8478 47.1962ZM125.325 89.1L126.189 89.3882C126.511 89.4954 126.848 89.55 127.187 89.55H127.224C127.457 89.55 127.689 89.5214 127.916 89.4648V89.4648C128.285 89.3725 128.632 89.2074 128.936 88.9792L129.002 88.9297C129.249 88.7442 129.469 88.5245 129.655 88.2771L129.964 87.8649C130.467 87.194 130.843 86.4366 131.074 85.6302L131.625 83.7L131.697 83.411C132.098 81.8061 132.375 80.1725 132.525 78.525V78.525V76.6553C132.525 76.4073 132.452 76.1649 132.314 75.9586L132.297 75.9337C132.153 75.7174 131.941 75.5554 131.695 75.4732V75.4732C131.502 75.4088 131.295 75.396 131.096 75.4359L130.652 75.5246C130.402 75.5746 130.159 75.6578 129.931 75.772L129.375 76.05L128.25 76.725L127.125 77.625L125.775 78.975L125.314 79.5681C124.572 80.5215 123.899 81.5263 123.3 82.575V82.575L122.971 83.2327C122.742 83.6912 122.588 84.1837 122.516 84.6912L122.481 84.9353C122.427 85.309 122.438 85.6892 122.512 86.0594V86.0594C122.587 86.4337 122.725 86.7923 122.922 87.1196L123.054 87.3408C123.218 87.6126 123.413 87.8633 123.637 88.0874V88.0874C124.009 88.4586 124.451 88.7505 124.939 88.9455L125.325 89.1Z" fill="#9E0202"/>
</g>
<defs>
<filter id="filter0_ii_561_63" x="-8" y="-3" width="231.35" height="252.816" filterUnits="userSpaceOnUse" color-interpolation-filters="sRGB">
<feFlood flood-opacity="0" result="BackgroundImageFix"/>
<feBlend mode="normal" in="SourceGraphic" in2="BackgroundImageFix" result="shape"/>
<feColorMatrix in="SourceAlpha" type="matrix" values="0 0 0 0 0 0 0 0 0 0 0 0 0 0 0 0 0 0 127 0" result="hardAlpha"/>
<feOffset dx="6" dy="-3"/>
<feGaussianBlur stdDeviation="2.5"/>
<feComposite in2="hardAlpha" operator="arithmetic" k2="-1" k3="1"/>
<feColorMatrix type="matrix" values="0 0 0 0 0.455046 0 0 0 0 0.0406682 0 0 0 0 0.0475745 0 0 0 1 0"/>
<feBlend mode="normal" in2="shape" result="effect1_innerShadow_561_63"/>
<feColorMatrix in="SourceAlpha" type="matrix" values="0 0 0 0 0 0 0 0 0 0 0 0 0 0 0 0 0 0 127 0" result="hardAlpha"/>
<feOffset dx="-8" dy="4"/>
<feGaussianBlur stdDeviation="5.65"/>
<feComposite in2="hardAlpha" operator="arithmetic" k2="-1" k3="1"/>
<feColorMatrix type="matrix" values="0 0 0 0 0.957552 0 0 0 0 0.33346 0 0 0 0 0.33346 0 0 0 0.25 0"/>
<feBlend mode="normal" in2="effect1_innerShadow_561_63" result="effect2_innerShadow_561_63"/>
</filter>
</defs>
</svg>
